<svg width="65" height="65" viewBox="0 0 65 65" fill="none" xmlns="http://www.w3.org/2000/svg">
<path d="M32.5 0C50.4498 0 65 14.5502 65 32.5C65 50.4497 50.4498 65 32.5 65C26.7565 65.0098 21.1139 63.4898 16.1525 60.5962L0.0130502 65L4.40705 48.854C1.51116 43.891 -0.0100153 38.246 4.96232e-05 32.5C4.96232e-05 14.5502 14.5503 0 32.5 0ZM21.424 17.225L20.774 17.251C20.3538 17.2799 19.9432 17.3903 19.565 17.576C19.2127 17.7759 18.8909 18.0255 18.6095 18.317C18.2195 18.6842 17.9985 19.0027 17.7613 19.3115C16.5592 20.8744 15.9119 22.7933 15.9218 24.765C15.9283 26.3575 16.3443 27.9077 16.9943 29.3572C18.3235 32.2887 20.5108 35.3925 23.3968 38.2687C24.0923 38.961 24.7748 39.6565 25.5093 40.3032C29.0954 43.4603 33.3687 45.7371 37.9893 46.9527L39.8353 47.2355C40.4365 47.268 41.0378 47.2225 41.6423 47.1932C42.5886 47.1433 43.5126 46.8871 44.3495 46.4425C44.7748 46.2226 45.1901 45.984 45.5943 45.7275C45.5943 45.7275 45.7319 45.6343 46.0005 45.435C46.4393 45.11 46.709 44.8792 47.073 44.499C47.346 44.2173 47.5735 43.8901 47.7555 43.5175C48.009 42.9877 48.2625 41.977 48.3665 41.1352C48.4445 40.4917 48.4218 40.1407 48.412 39.923C48.399 39.5752 48.1098 39.2145 47.7945 39.0617L45.903 38.2135C45.903 38.2135 43.0755 36.9817 41.3465 36.1952C41.1655 36.1164 40.9717 36.0713 40.7745 36.062C40.5521 36.0387 40.3273 36.0635 40.1154 36.1347C39.9034 36.206 39.7092 36.3219 39.546 36.4747C39.5298 36.4682 39.312 36.6535 36.9623 39.5005C36.8274 39.6817 36.6416 39.8187 36.4286 39.8939C36.2156 39.9691 35.985 39.9793 35.7663 39.923C35.5545 39.8665 35.347 39.7948 35.1455 39.7085C34.7425 39.5395 34.6028 39.4745 34.3265 39.3575C32.4606 38.5447 30.7335 37.4448 29.2078 36.0977C28.7983 35.7402 28.418 35.3502 28.028 34.9732C26.7495 33.7486 25.6352 32.3634 24.713 30.8522L24.5213 30.5435C24.3856 30.3348 24.2744 30.1113 24.1898 29.8772C24.0663 29.3995 24.388 29.016 24.388 29.016C24.388 29.016 25.1778 28.1515 25.545 27.6835C25.9025 27.2285 26.2048 26.7865 26.3998 26.4712C26.7833 25.8537 26.9035 25.22 26.702 24.7292C25.792 22.5062 24.8517 20.2952 23.881 18.096C23.6893 17.6605 23.1205 17.3485 22.6038 17.2867C22.4283 17.2651 22.2528 17.2477 22.0773 17.2347C21.6409 17.2097 21.2033 17.2141 20.7675 17.2477L21.424 17.225Z" fill="#0B96D1"/>
</svg>
