<svg width="39" height="48" viewBox="0 0 39 48" fill="none" xmlns="http://www.w3.org/2000/svg">
<path d="M28.5318 23.7L23.6637 11.18L19.5588 18.5L15.454 11.18L10.5859 23.704H9.179V25.586H16.5096V23.704H15.4246L16.4802 20.594L19.5588 25.734L22.6375 20.594L23.6931 23.704H22.608V25.586H29.9681V23.704L28.5318 23.7ZM38.9999 19.876C39.0012 17.2655 38.4977 14.6803 37.5182 12.2682C36.5387 9.85617 35.1024 7.66454 33.2914 5.81862C31.4804 3.9727 29.3302 2.50869 26.9638 1.5103C24.5974 0.511899 22.0611 -0.00131188 19.5 2.51836e-06C8.73947 2.51836e-06 0 8.906 0 19.876C0 25.376 2.19958 30.336 5.71774 33.922C5.93805 34.1485 6.21948 34.3032 6.52624 34.3662C6.833 34.4293 7.15123 34.3979 7.44046 34.2762C7.72969 34.1544 7.97685 33.9477 8.15051 33.6823C8.32417 33.417 8.41649 33.105 8.41572 32.786C8.41532 32.3503 8.24689 31.9322 7.94676 31.622C4.89854 28.5033 3.1905 24.2782 3.19833 19.876C3.19833 10.7 10.4976 3.228 19.5 3.228C28.5024 3.228 35.833 10.7 35.833 19.876C35.8366 22.063 35.4162 24.2292 34.596 26.2502C33.7757 28.2711 32.5717 30.1068 31.0532 31.652L17.271 45.698L19.5 48L33.3116 33.922C35.1205 32.0779 36.5542 29.8878 37.5304 27.4773C38.5065 25.0669 39.006 22.4837 38.9999 19.876Z" fill="#10664E"/>
</svg>
