<svg width="71" height="71" viewBox="0 0 71 71" fill="none" xmlns="http://www.w3.org/2000/svg">
<path d="M35.4999 0.0830078C15.9499 0.0830078 0.083252 15.9497 0.083252 35.4997C0.083252 55.0497 15.9499 70.9163 35.4999 70.9163C55.0499 70.9163 70.9166 55.0497 70.9166 35.4997C70.9166 15.9497 55.0499 0.0830078 35.4999 0.0830078ZM51.9332 24.1663C51.402 29.7622 49.0999 43.3622 47.9312 49.6309C47.4353 52.2872 46.4437 53.1726 45.5228 53.2788C43.4687 53.4559 41.9103 51.933 39.927 50.6226C36.8103 48.5684 35.0395 47.2934 32.0291 45.3101C28.5228 43.008 30.7895 41.733 32.8083 39.6788C33.3395 39.1476 42.4062 30.8955 42.5833 30.1518C42.6078 30.0391 42.6046 29.9222 42.5737 29.8111C42.5429 29.7 42.4853 29.5981 42.4062 29.5143C42.1937 29.3372 41.9103 29.408 41.6624 29.4434C41.3437 29.5143 36.3853 32.808 26.7166 39.3247C25.2999 40.2809 24.0249 40.7768 22.8916 40.7413C21.6166 40.7059 19.2083 40.033 17.402 39.4309C15.1708 38.7226 13.4353 38.333 13.577 37.0934C13.6478 36.4559 14.5333 35.8184 16.1978 35.1455C26.5395 30.6476 33.4103 27.6726 36.8457 26.2559C46.6916 22.1476 48.7103 21.4393 50.0562 21.4393C50.3395 21.4393 51.0124 21.5101 51.4374 21.8643C51.7916 22.1476 51.8978 22.5372 51.9332 22.8205C51.8978 23.033 51.9687 23.6705 51.9332 24.1663Z" fill="white"/>
</svg>
