<svg width="68" height="68" viewBox="0 0 68 68" fill="none" xmlns="http://www.w3.org/2000/svg">
<path d="M4.975 4.975C0.250001 9.745 0.25 17.3725 0.25 32.65V35.35C0.25 50.605 0.250001 58.2325 4.975 63.025C9.745 67.75 17.3725 67.75 32.65 67.75H35.35C50.605 67.75 58.2325 67.75 63.025 63.025C67.75 58.255 67.75 50.6275 67.75 35.35V32.65C67.75 17.395 67.75 9.7675 63.025 4.975C58.255 0.250001 50.6275 0.25 35.35 0.25H32.65C17.395 0.25 9.7675 0.250001 4.975 4.975ZM11.635 20.7925H19.375C19.6225 33.6625 25.2925 39.1075 29.7925 40.2325V20.7925H37.06V31.885C41.4925 31.4125 46.1725 26.35 47.7475 20.77H54.9925C54.4013 23.6583 53.2211 26.3938 51.5255 28.8056C49.8299 31.2173 47.6553 33.2537 45.1375 34.7875C47.9479 36.1858 50.4298 38.1641 52.4194 40.592C54.4091 43.0199 55.8612 45.8422 56.68 48.8725H48.6925C46.9825 43.54 42.7075 39.4 37.06 38.8375V48.8725H36.16C20.77 48.8725 11.995 38.3425 11.635 20.7925Z" fill="white"/>
</svg>
